<svg width="1104" height="802" viewBox="0 0 1104 802" fill="none" xmlns="http://www.w3.org/2000/svg">
<path d="M751.5 345.647V300.647H835.5V384.647L673.5 515.147L576 434.147L639 383.147L673.5 408.647L751.5 345.647Z" fill="#1FB7C1" stroke="#0DB7C1"/>
<path d="M688.5 212.147L642 174.647L577.5 225.647L606 251.147V272.147L436.5 408.647H430.5L354 347.431V161.147L415.5 108.647H418.5L466.5 146.147L531 93.6466L415.5 0.646591L270 122.147V386.147L433.5 516.647L688.5 311.686V212.147Z" fill="#0F2747" stroke="#022747"/>
<path d="M835.5 206.147H751.5V161.147L688.5 108.647L501 255.647V270.647L532.5 299.147L466.5 353.147L417 312.647V216.647L690 3.64658L835.5 123.647V206.147Z" fill="#1FB7C1" stroke="#0DB7C1"/>
<mask id="path-4-outside-1_100_31" maskUnits="userSpaceOnUse" x="13" y="611.647" width="1085" height="149" fill="black">
<rect fill="white" x="13" y="611.647" width="1085" height="149"/>
<path d="M162.556 621.537V757.647H135.256V669.117L98.7911 757.647H78.1211L41.4611 669.117V757.647H14.1611V621.537H45.1661L88.4561 722.742L131.746 621.537H162.556ZM182.527 703.242C182.527 692.322 184.672 682.637 188.962 674.187C193.382 665.737 199.297 659.237 206.707 654.687C214.247 650.137 222.632 647.862 231.862 647.862C239.922 647.862 246.942 649.487 252.922 652.737C259.032 655.987 263.907 660.082 267.547 665.022V649.617H295.042V757.647H267.547V741.852C264.037 746.922 259.162 751.147 252.922 754.527C246.812 757.777 239.727 759.402 231.667 759.402C222.567 759.402 214.247 757.062 206.707 752.382C199.297 747.702 193.382 741.137 188.962 732.687C184.672 724.107 182.527 714.292 182.527 703.242ZM267.547 703.632C267.547 697.002 266.247 691.347 263.647 686.667C261.047 681.857 257.537 678.217 253.117 675.747C248.697 673.147 243.952 671.847 238.882 671.847C233.812 671.847 229.132 673.082 224.842 675.552C220.552 678.022 217.042 681.662 214.312 686.472C211.712 691.152 210.412 696.742 210.412 703.242C210.412 709.742 211.712 715.462 214.312 720.402C217.042 725.212 220.552 728.917 224.842 731.517C229.262 734.117 233.942 735.417 238.882 735.417C243.952 735.417 248.697 734.182 253.117 731.712C257.537 729.112 261.047 725.472 263.647 720.792C266.247 715.982 267.547 710.262 267.547 703.632ZM353.49 672.042V724.302C353.49 727.942 354.335 730.607 356.025 732.297C357.845 733.857 360.835 734.637 364.995 734.637H377.67V757.647H360.51C337.5 757.647 325.995 746.467 325.995 724.107V672.042H313.125V649.617H325.995V622.902H353.49V649.617H377.67V672.042H353.49ZM390.286 703.632C390.286 692.452 392.561 682.702 397.111 674.382C401.661 665.932 407.966 659.432 416.026 654.882C424.086 650.202 433.316 647.862 443.716 647.862C457.106 647.862 468.156 651.242 476.866 658.002C485.706 664.632 491.621 673.992 494.611 686.082H465.166C463.606 681.402 460.941 677.762 457.171 675.162C453.531 672.432 448.981 671.067 443.521 671.067C435.721 671.067 429.546 673.927 424.996 679.647C420.446 685.237 418.171 693.232 418.171 703.632C418.171 713.902 420.446 721.897 424.996 727.617C429.546 733.207 435.721 736.002 443.521 736.002C454.571 736.002 461.786 731.062 465.166 721.182H494.611C491.621 732.882 485.706 742.177 476.866 749.067C468.026 755.957 456.976 759.402 443.716 759.402C433.316 759.402 424.086 757.127 416.026 752.577C407.966 747.897 401.661 741.397 397.111 733.077C392.561 724.627 390.286 714.812 390.286 703.632ZM575.45 648.057C583.64 648.057 590.92 649.877 597.29 653.517C603.66 657.027 608.6 662.292 612.11 669.312C615.75 676.202 617.57 684.522 617.57 694.272V757.647H590.27V697.977C590.27 689.397 588.125 682.832 583.835 678.282C579.545 673.602 573.695 671.262 566.285 671.262C558.745 671.262 552.765 673.602 548.345 678.282C544.055 682.832 541.91 689.397 541.91 697.977V757.647H514.61V613.347H541.91V663.072C545.42 658.392 550.1 654.752 555.95 652.152C561.8 649.422 568.3 648.057 575.45 648.057ZM636.901 689.397C636.901 676.007 639.891 664.047 645.871 653.517C651.981 642.857 660.236 634.602 670.636 628.752C681.166 622.772 692.931 619.782 705.931 619.782C721.141 619.782 734.466 623.682 745.906 631.482C757.346 639.282 765.341 650.072 769.891 663.852H738.496C735.376 657.352 730.956 652.477 725.236 649.227C719.646 645.977 713.146 644.352 705.736 644.352C697.806 644.352 690.721 646.237 684.481 650.007C678.371 653.647 673.561 658.847 670.051 665.607C666.671 672.367 664.981 680.297 664.981 689.397C664.981 698.367 666.671 706.297 670.051 713.187C673.561 719.947 678.371 725.212 684.481 728.982C690.721 732.622 697.806 734.442 705.736 734.442C713.146 734.442 719.646 732.817 725.236 729.567C730.956 726.187 735.376 721.247 738.496 714.747H769.891C765.341 728.657 757.346 739.512 745.906 747.312C734.596 754.982 721.271 758.817 705.931 758.817C692.931 758.817 681.166 755.892 670.636 750.042C660.236 744.062 651.981 735.807 645.871 725.277C639.891 714.747 636.901 702.787 636.901 689.397ZM841.179 759.402C830.779 759.402 821.419 757.127 813.099 752.577C804.779 747.897 798.214 741.332 793.404 732.882C788.724 724.432 786.384 714.682 786.384 703.632C786.384 692.582 788.789 682.832 793.599 674.382C798.539 665.932 805.234 659.432 813.684 654.882C822.134 650.202 831.559 647.862 841.959 647.862C852.359 647.862 861.784 650.202 870.234 654.882C878.684 659.432 885.314 665.932 890.124 674.382C895.064 682.832 897.534 692.582 897.534 703.632C897.534 714.682 894.999 724.432 889.929 732.882C884.989 741.332 878.229 747.897 869.649 752.577C861.199 757.127 851.709 759.402 841.179 759.402ZM841.179 735.612C846.119 735.612 850.734 734.442 855.024 732.102C859.444 729.632 862.954 725.992 865.554 721.182C868.154 716.372 869.454 710.522 869.454 703.632C869.454 693.362 866.724 685.497 861.264 680.037C855.934 674.447 849.369 671.652 841.569 671.652C833.769 671.652 827.204 674.447 821.874 680.037C816.674 685.497 814.074 693.362 814.074 703.632C814.074 713.902 816.609 721.832 821.679 727.422C826.879 732.882 833.379 735.612 841.179 735.612ZM944.859 666.387C948.369 660.667 952.919 656.182 958.509 652.932C964.229 649.682 970.729 648.057 978.009 648.057V676.722H970.794C962.214 676.722 955.714 678.737 951.294 682.767C947.004 686.797 944.859 693.817 944.859 703.827V757.647H917.559V649.617H944.859V666.387ZM1096.82 701.292C1096.82 705.192 1096.56 708.702 1096.04 711.822H1017.07C1017.72 719.622 1020.45 725.732 1025.26 730.152C1030.07 734.572 1035.98 736.782 1043 736.782C1053.14 736.782 1060.36 732.427 1064.65 723.717H1094.09C1090.97 734.117 1084.99 742.697 1076.15 749.457C1067.31 756.087 1056.46 759.402 1043.59 759.402C1033.19 759.402 1023.83 757.127 1015.51 752.577C1007.32 747.897 1000.88 741.332 996.202 732.882C991.652 724.432 989.377 714.682 989.377 703.632C989.377 692.452 991.652 682.637 996.202 674.187C1000.75 665.737 1007.12 659.237 1015.31 654.687C1023.5 650.137 1032.93 647.862 1043.59 647.862C1053.86 647.862 1063.02 650.072 1071.08 654.492C1079.27 658.912 1085.58 665.217 1090 673.407C1094.55 681.467 1096.82 690.762 1096.82 701.292ZM1068.55 693.492C1068.42 686.472 1065.88 680.882 1060.94 676.722C1056 672.432 1049.96 670.287 1042.81 670.287C1036.05 670.287 1030.33 672.367 1025.65 676.527C1021.1 680.557 1018.3 686.212 1017.26 693.492H1068.55Z"/>
</mask>
<path d="M162.556 621.537V757.647H135.256V669.117L98.7911 757.647H78.1211L41.4611 669.117V757.647H14.1611V621.537H45.1661L88.4561 722.742L131.746 621.537H162.556ZM182.527 703.242C182.527 692.322 184.672 682.637 188.962 674.187C193.382 665.737 199.297 659.237 206.707 654.687C214.247 650.137 222.632 647.862 231.862 647.862C239.922 647.862 246.942 649.487 252.922 652.737C259.032 655.987 263.907 660.082 267.547 665.022V649.617H295.042V757.647H267.547V741.852C264.037 746.922 259.162 751.147 252.922 754.527C246.812 757.777 239.727 759.402 231.667 759.402C222.567 759.402 214.247 757.062 206.707 752.382C199.297 747.702 193.382 741.137 188.962 732.687C184.672 724.107 182.527 714.292 182.527 703.242ZM267.547 703.632C267.547 697.002 266.247 691.347 263.647 686.667C261.047 681.857 257.537 678.217 253.117 675.747C248.697 673.147 243.952 671.847 238.882 671.847C233.812 671.847 229.132 673.082 224.842 675.552C220.552 678.022 217.042 681.662 214.312 686.472C211.712 691.152 210.412 696.742 210.412 703.242C210.412 709.742 211.712 715.462 214.312 720.402C217.042 725.212 220.552 728.917 224.842 731.517C229.262 734.117 233.942 735.417 238.882 735.417C243.952 735.417 248.697 734.182 253.117 731.712C257.537 729.112 261.047 725.472 263.647 720.792C266.247 715.982 267.547 710.262 267.547 703.632ZM353.49 672.042V724.302C353.49 727.942 354.335 730.607 356.025 732.297C357.845 733.857 360.835 734.637 364.995 734.637H377.67V757.647H360.51C337.5 757.647 325.995 746.467 325.995 724.107V672.042H313.125V649.617H325.995V622.902H353.49V649.617H377.67V672.042H353.49ZM390.286 703.632C390.286 692.452 392.561 682.702 397.111 674.382C401.661 665.932 407.966 659.432 416.026 654.882C424.086 650.202 433.316 647.862 443.716 647.862C457.106 647.862 468.156 651.242 476.866 658.002C485.706 664.632 491.621 673.992 494.611 686.082H465.166C463.606 681.402 460.941 677.762 457.171 675.162C453.531 672.432 448.981 671.067 443.521 671.067C435.721 671.067 429.546 673.927 424.996 679.647C420.446 685.237 418.171 693.232 418.171 703.632C418.171 713.902 420.446 721.897 424.996 727.617C429.546 733.207 435.721 736.002 443.521 736.002C454.571 736.002 461.786 731.062 465.166 721.182H494.611C491.621 732.882 485.706 742.177 476.866 749.067C468.026 755.957 456.976 759.402 443.716 759.402C433.316 759.402 424.086 757.127 416.026 752.577C407.966 747.897 401.661 741.397 397.111 733.077C392.561 724.627 390.286 714.812 390.286 703.632ZM575.45 648.057C583.64 648.057 590.92 649.877 597.29 653.517C603.66 657.027 608.6 662.292 612.11 669.312C615.75 676.202 617.57 684.522 617.57 694.272V757.647H590.27V697.977C590.27 689.397 588.125 682.832 583.835 678.282C579.545 673.602 573.695 671.262 566.285 671.262C558.745 671.262 552.765 673.602 548.345 678.282C544.055 682.832 541.91 689.397 541.91 697.977V757.647H514.61V613.347H541.91V663.072C545.42 658.392 550.1 654.752 555.95 652.152C561.8 649.422 568.3 648.057 575.45 648.057ZM636.901 689.397C636.901 676.007 639.891 664.047 645.871 653.517C651.981 642.857 660.236 634.602 670.636 628.752C681.166 622.772 692.931 619.782 705.931 619.782C721.141 619.782 734.466 623.682 745.906 631.482C757.346 639.282 765.341 650.072 769.891 663.852H738.496C735.376 657.352 730.956 652.477 725.236 649.227C719.646 645.977 713.146 644.352 705.736 644.352C697.806 644.352 690.721 646.237 684.481 650.007C678.371 653.647 673.561 658.847 670.051 665.607C666.671 672.367 664.981 680.297 664.981 689.397C664.981 698.367 666.671 706.297 670.051 713.187C673.561 719.947 678.371 725.212 684.481 728.982C690.721 732.622 697.806 734.442 705.736 734.442C713.146 734.442 719.646 732.817 725.236 729.567C730.956 726.187 735.376 721.247 738.496 714.747H769.891C765.341 728.657 757.346 739.512 745.906 747.312C734.596 754.982 721.271 758.817 705.931 758.817C692.931 758.817 681.166 755.892 670.636 750.042C660.236 744.062 651.981 735.807 645.871 725.277C639.891 714.747 636.901 702.787 636.901 689.397ZM841.179 759.402C830.779 759.402 821.419 757.127 813.099 752.577C804.779 747.897 798.214 741.332 793.404 732.882C788.724 724.432 786.384 714.682 786.384 703.632C786.384 692.582 788.789 682.832 793.599 674.382C798.539 665.932 805.234 659.432 813.684 654.882C822.134 650.202 831.559 647.862 841.959 647.862C852.359 647.862 861.784 650.202 870.234 654.882C878.684 659.432 885.314 665.932 890.124 674.382C895.064 682.832 897.534 692.582 897.534 703.632C897.534 714.682 894.999 724.432 889.929 732.882C884.989 741.332 878.229 747.897 869.649 752.577C861.199 757.127 851.709 759.402 841.179 759.402ZM841.179 735.612C846.119 735.612 850.734 734.442 855.024 732.102C859.444 729.632 862.954 725.992 865.554 721.182C868.154 716.372 869.454 710.522 869.454 703.632C869.454 693.362 866.724 685.497 861.264 680.037C855.934 674.447 849.369 671.652 841.569 671.652C833.769 671.652 827.204 674.447 821.874 680.037C816.674 685.497 814.074 693.362 814.074 703.632C814.074 713.902 816.609 721.832 821.679 727.422C826.879 732.882 833.379 735.612 841.179 735.612ZM944.859 666.387C948.369 660.667 952.919 656.182 958.509 652.932C964.229 649.682 970.729 648.057 978.009 648.057V676.722H970.794C962.214 676.722 955.714 678.737 951.294 682.767C947.004 686.797 944.859 693.817 944.859 703.827V757.647H917.559V649.617H944.859V666.387ZM1096.82 701.292C1096.82 705.192 1096.56 708.702 1096.04 711.822H1017.07C1017.72 719.622 1020.45 725.732 1025.26 730.152C1030.07 734.572 1035.98 736.782 1043 736.782C1053.14 736.782 1060.36 732.427 1064.65 723.717H1094.09C1090.97 734.117 1084.99 742.697 1076.15 749.457C1067.31 756.087 1056.46 759.402 1043.59 759.402C1033.19 759.402 1023.83 757.127 1015.51 752.577C1007.32 747.897 1000.88 741.332 996.202 732.882C991.652 724.432 989.377 714.682 989.377 703.632C989.377 692.452 991.652 682.637 996.202 674.187C1000.75 665.737 1007.12 659.237 1015.31 654.687C1023.5 650.137 1032.93 647.862 1043.59 647.862C1053.86 647.862 1063.02 650.072 1071.08 654.492C1079.27 658.912 1085.58 665.217 1090 673.407C1094.55 681.467 1096.82 690.762 1096.82 701.292ZM1068.55 693.492C1068.42 686.472 1065.88 680.882 1060.94 676.722C1056 672.432 1049.96 670.287 1042.81 670.287C1036.05 670.287 1030.33 672.367 1025.65 676.527C1021.1 680.557 1018.3 686.212 1017.26 693.492H1068.55Z" fill="#0F2747"/>
<path d="M162.556 621.537H163.556V620.537H162.556V621.537ZM162.556 757.647V758.647H163.556V757.647H162.556ZM135.256 757.647H134.256V758.647H135.256V757.647ZM135.256 669.117H136.256L134.331 668.736L135.256 669.117ZM98.7911 757.647V758.647H99.4607L99.7157 758.028L98.7911 757.647ZM78.1211 757.647L77.1971 758.029L77.4528 758.647H78.1211V757.647ZM41.4611 669.117L42.385 668.734L40.4611 669.117H41.4611ZM41.4611 757.647V758.647H42.4611V757.647H41.4611ZM14.1611 757.647H13.1611V758.647H14.1611V757.647ZM14.1611 621.537V620.537H13.1611V621.537H14.1611ZM45.1661 621.537L46.0855 621.143L45.826 620.537H45.1661V621.537ZM88.4561 722.742L87.5366 723.135L88.4561 725.284L89.3755 723.135L88.4561 722.742ZM131.746 621.537V620.537H131.086L130.827 621.143L131.746 621.537ZM162.556 621.537H161.556V757.647H162.556H163.556V621.537H162.556ZM162.556 757.647V756.647H135.256V757.647V758.647H162.556V757.647ZM135.256 757.647H136.256V669.117H135.256H134.256V757.647H135.256ZM135.256 669.117L134.331 668.736L97.8664 757.266L98.7911 757.647L99.7157 758.028L136.181 669.497L135.256 669.117ZM98.7911 757.647V756.647H78.1211V757.647V758.647H98.7911V757.647ZM78.1211 757.647L79.045 757.264L42.385 668.734L41.4611 669.117L40.5371 669.499L77.1971 758.029L78.1211 757.647ZM41.4611 669.117H40.4611V757.647H41.4611H42.4611V669.117H41.4611ZM41.4611 757.647V756.647H14.1611V757.647V758.647H41.4611V757.647ZM14.1611 757.647H15.1611V621.537H14.1611H13.1611V757.647H14.1611ZM14.1611 621.537V622.537H45.1661V621.537V620.537H14.1611V621.537ZM45.1661 621.537L44.2466 621.93L87.5366 723.135L88.4561 722.742L89.3755 722.348L46.0855 621.143L45.1661 621.537ZM88.4561 722.742L89.3755 723.135L132.665 621.93L131.746 621.537L130.827 621.143L87.5366 722.348L88.4561 722.742ZM131.746 621.537V622.537H162.556V621.537V620.537H131.746V621.537ZM188.962 674.187L188.076 673.723L188.07 673.734L188.962 674.187ZM206.707 654.687L206.19 653.83L206.184 653.834L206.707 654.687ZM252.922 652.737L252.444 653.615L252.452 653.62L252.922 652.737ZM267.547 665.022L266.742 665.615L268.547 668.065V665.022H267.547ZM267.547 649.617V648.617H266.547V649.617H267.547ZM295.042 649.617H296.042V648.617H295.042V649.617ZM295.042 757.647V758.647H296.042V757.647H295.042ZM267.547 757.647H266.547V758.647H267.547V757.647ZM267.547 741.852H268.547V738.65L266.725 741.282L267.547 741.852ZM252.922 754.527L253.391 755.41L253.398 755.406L252.922 754.527ZM206.707 752.382L206.173 753.227L206.179 753.231L206.707 752.382ZM188.962 732.687L188.067 733.134L188.071 733.142L188.076 733.15L188.962 732.687ZM263.647 686.667L262.767 687.142L262.773 687.152L263.647 686.667ZM253.117 675.747L252.61 676.609L252.619 676.614L252.629 676.62L253.117 675.747ZM224.842 675.552L224.343 674.685V674.685L224.842 675.552ZM214.312 686.472L213.442 685.978L213.438 685.986L214.312 686.472ZM214.312 720.402L213.427 720.867L213.434 720.881L213.442 720.895L214.312 720.402ZM224.842 731.517L224.323 732.372L224.335 732.379L224.842 731.517ZM253.117 731.712L253.605 732.585L253.614 732.579L253.624 732.574L253.117 731.712ZM263.647 720.792L264.521 721.277L264.527 721.267L263.647 720.792ZM182.527 703.242H183.527C183.527 692.455 185.645 682.929 189.853 674.639L188.962 674.187L188.07 673.734C183.699 682.344 181.527 692.188 181.527 703.242H182.527ZM188.962 674.187L189.848 674.65C194.193 666.344 199.989 659.985 207.23 655.539L206.707 654.687L206.184 653.834C198.605 658.488 192.571 665.129 188.076 673.723L188.962 674.187ZM206.707 654.687L207.223 655.543C214.6 651.092 222.805 648.862 231.862 648.862V647.862V646.862C222.459 646.862 213.894 649.182 206.19 653.83L206.707 654.687ZM231.862 647.862V648.862C239.786 648.862 246.636 650.458 252.444 653.615L252.922 652.737L253.399 651.858C247.248 648.515 240.058 646.862 231.862 646.862V647.862ZM252.922 652.737L252.452 653.62C258.447 656.808 263.201 660.81 266.742 665.615L267.547 665.022L268.352 664.428C264.612 659.353 259.617 655.165 253.391 651.854L252.922 652.737ZM267.547 665.022H268.547V649.617H267.547H266.547V665.022H267.547ZM267.547 649.617V650.617H295.042V649.617V648.617H267.547V649.617ZM295.042 649.617H294.042V757.647H295.042H296.042V649.617H295.042ZM295.042 757.647V756.647H267.547V757.647V758.647H295.042V757.647ZM267.547 757.647H268.547V741.852H267.547H266.547V757.647H267.547ZM267.547 741.852L266.725 741.282C263.317 746.205 258.568 750.331 252.446 753.647L252.922 754.527L253.398 755.406C259.755 751.962 264.757 747.638 268.369 742.421L267.547 741.852ZM252.922 754.527L252.452 753.644C246.509 756.805 239.59 758.402 231.667 758.402V759.402V760.402C239.864 760.402 247.115 758.748 253.391 755.41L252.922 754.527ZM231.667 759.402V758.402C222.748 758.402 214.612 756.111 207.234 751.532L206.707 752.382L206.179 753.231C213.882 758.012 222.385 760.402 231.667 760.402V759.402ZM206.707 752.382L207.241 751.536C199.993 746.958 194.194 740.531 189.848 732.223L188.962 732.687L188.076 733.15C192.57 741.742 198.601 748.445 206.173 753.227L206.707 752.382ZM188.962 732.687L189.856 732.239C185.646 723.818 183.527 714.16 183.527 703.242H182.527H181.527C181.527 714.423 183.698 724.395 188.067 733.134L188.962 732.687ZM267.547 703.632H268.547C268.547 696.872 267.221 691.041 264.521 686.181L263.647 686.667L262.773 687.152C265.273 691.652 266.547 697.132 266.547 703.632H267.547ZM263.647 686.667L264.527 686.191C261.844 681.228 258.204 677.444 253.605 674.874L253.117 675.747L252.629 676.62C256.87 678.99 260.25 682.485 262.767 687.142L263.647 686.667ZM253.117 675.747L253.624 674.885C249.052 672.195 244.132 670.847 238.882 670.847V671.847V672.847C243.771 672.847 248.342 674.098 252.61 676.609L253.117 675.747ZM238.882 671.847V670.847C233.641 670.847 228.788 672.125 224.343 674.685L224.842 675.552L225.341 676.418C229.475 674.038 233.982 672.847 238.882 672.847V671.847ZM224.842 675.552L224.343 674.685C219.881 677.254 216.25 681.032 213.442 685.978L214.312 686.472L215.181 686.965C217.834 682.292 221.223 678.789 225.341 676.418L224.842 675.552ZM214.312 686.472L213.438 685.986C210.739 690.843 209.412 696.608 209.412 703.242H210.412H211.412C211.412 696.875 212.684 691.46 215.186 686.957L214.312 686.472ZM210.412 703.242H209.412C209.412 709.877 210.74 715.762 213.427 720.867L214.312 720.402L215.197 719.936C212.684 715.161 211.412 709.606 211.412 703.242H210.412ZM214.312 720.402L213.442 720.895C216.248 725.838 219.873 729.674 224.323 732.372L224.842 731.517L225.36 730.661C221.231 728.159 217.836 724.585 215.181 719.908L214.312 720.402ZM224.842 731.517L224.335 732.379C228.902 735.065 233.757 736.417 238.882 736.417V735.417V734.417C234.127 734.417 229.621 733.168 225.349 730.655L224.842 731.517ZM238.882 735.417V736.417C244.122 736.417 249.035 735.138 253.605 732.585L253.117 731.712L252.629 730.839C248.358 733.225 243.781 734.417 238.882 734.417V735.417ZM253.117 731.712L253.624 732.574C258.204 729.879 261.838 726.106 264.521 721.277L263.647 720.792L262.773 720.306C260.255 724.837 256.869 728.344 252.61 730.85L253.117 731.712ZM263.647 720.792L264.527 721.267C267.221 716.283 268.547 710.393 268.547 703.632H267.547H266.547C266.547 710.131 265.273 715.68 262.767 720.316L263.647 720.792ZM353.49 672.042V671.042H352.49V672.042H353.49ZM356.025 732.297L355.318 733.004L355.345 733.031L355.374 733.056L356.025 732.297ZM377.67 734.637H378.67V733.637H377.67V734.637ZM377.67 757.647V758.647H378.67V757.647H377.67ZM325.995 672.042H326.995V671.042H325.995V672.042ZM313.125 672.042H312.125V673.042H313.125V672.042ZM313.125 649.617V648.617H312.125V649.617H313.125ZM325.995 649.617V650.617H326.995V649.617H325.995ZM325.995 622.902V621.902H324.995V622.902H325.995ZM353.49 622.902H354.49V621.902H353.49V622.902ZM353.49 649.617H352.49V650.617H353.49V649.617ZM377.67 649.617H378.67V648.617H377.67V649.617ZM377.67 672.042V673.042H378.67V672.042H377.67ZM353.49 672.042H352.49V724.302H353.49H354.49V672.042H353.49ZM353.49 724.302H352.49C352.49 728.071 353.362 731.048 355.318 733.004L356.025 732.297L356.732 731.59C355.308 730.165 354.49 727.813 354.49 724.302H353.49ZM356.025 732.297L355.374 733.056C357.468 734.851 360.756 735.637 364.995 735.637V734.637V733.637C360.914 733.637 358.222 732.863 356.676 731.537L356.025 732.297ZM364.995 734.637V735.637H377.67V734.637V733.637H364.995V734.637ZM377.67 734.637H376.67V757.647H377.67H378.67V734.637H377.67ZM377.67 757.647V756.647H360.51V757.647V758.647H377.67V757.647ZM360.51 757.647V756.647C349.152 756.647 340.819 753.887 335.321 748.544C329.828 743.207 326.995 735.125 326.995 724.107H325.995H324.995C324.995 735.448 327.914 744.136 333.927 749.979C339.934 755.816 348.858 758.647 360.51 758.647V757.647ZM325.995 724.107H326.995V672.042H325.995H324.995V724.107H325.995ZM325.995 672.042V671.042H313.125V672.042V673.042H325.995V672.042ZM313.125 672.042H314.125V649.617H313.125H312.125V672.042H313.125ZM313.125 649.617V650.617H325.995V649.617V648.617H313.125V649.617ZM325.995 649.617H326.995V622.902H325.995H324.995V649.617H325.995ZM325.995 622.902V623.902H353.49V622.902V621.902H325.995V622.902ZM353.49 622.902H352.49V649.617H353.49H354.49V622.902H353.49ZM353.49 649.617V650.617H377.67V649.617V648.617H353.49V649.617ZM377.67 649.617H376.67V672.042H377.67H378.67V649.617H377.67ZM377.67 672.042V671.042H353.49V672.042V673.042H377.67V672.042ZM397.111 674.382L397.988 674.861L397.991 674.856L397.111 674.382ZM416.026 654.882L416.517 655.753L416.528 655.746L416.026 654.882ZM476.866 658.002L476.252 658.792L476.259 658.797L476.266 658.802L476.866 658.002ZM494.611 686.082V687.082H495.888L495.581 685.842L494.611 686.082ZM465.166 686.082L464.217 686.398L464.445 687.082H465.166V686.082ZM457.171 675.162L456.571 675.962L456.586 675.974L456.603 675.985L457.171 675.162ZM424.996 679.647L425.771 680.278L425.778 680.269L424.996 679.647ZM424.996 727.617L424.213 728.239L424.22 728.248L424.996 727.617ZM465.166 721.182V720.182H464.451L464.219 720.858L465.166 721.182ZM494.611 721.182L495.579 721.429L495.898 720.182H494.611V721.182ZM476.866 749.067L477.48 749.855V749.855L476.866 749.067ZM416.026 752.577L415.523 753.441L415.534 753.447L416.026 752.577ZM397.111 733.077L396.23 733.551L396.233 733.556L397.111 733.077ZM390.286 703.632H391.286C391.286 692.589 393.532 683.01 397.988 674.861L397.111 674.382L396.233 673.902C391.589 682.393 389.286 692.314 389.286 703.632H390.286ZM397.111 674.382L397.991 674.856C402.455 666.566 408.628 660.206 416.517 655.752L416.026 654.882L415.534 654.011C407.303 658.657 400.866 665.298 396.23 673.908L397.111 674.382ZM416.026 654.882L416.528 655.746C424.418 651.165 433.471 648.862 443.716 648.862V647.862V646.862C433.16 646.862 423.753 649.238 415.523 654.017L416.026 654.882ZM443.716 647.862V648.862C456.933 648.862 467.753 652.195 476.252 658.792L476.866 658.002L477.479 657.212C468.558 650.288 457.279 646.862 443.716 646.862V647.862ZM476.866 658.002L476.266 658.802C484.898 665.276 490.698 674.425 493.64 686.322L494.611 686.082L495.581 685.842C492.543 673.558 486.513 663.988 477.466 657.202L476.866 658.002ZM494.611 686.082V685.082H465.166V686.082V687.082H494.611V686.082ZM465.166 686.082L466.114 685.765C464.491 680.896 461.701 677.071 457.738 674.338L457.171 675.162L456.603 675.985C460.18 678.452 462.72 681.907 464.217 686.398L465.166 686.082ZM457.171 675.162L457.771 674.362C453.925 671.477 449.152 670.067 443.521 670.067V671.067V672.067C448.809 672.067 453.136 673.386 456.571 675.962L457.171 675.162ZM443.521 671.067V670.067C435.439 670.067 428.967 673.048 424.213 679.024L424.996 679.647L425.778 680.269C430.124 674.806 436.002 672.067 443.521 672.067V671.067ZM424.996 679.647L424.22 679.015C419.473 684.848 417.171 693.101 417.171 703.632H418.171H419.171C419.171 693.362 421.419 685.625 425.771 680.278L424.996 679.647ZM418.171 703.632H417.171C417.171 714.038 419.475 722.283 424.213 728.239L424.996 727.617L425.778 726.994C421.416 721.511 419.171 713.765 419.171 703.632H418.171ZM424.996 727.617L424.22 728.248C428.977 734.092 435.448 737.002 443.521 737.002V736.002V735.002C435.993 735.002 430.114 732.321 425.771 726.985L424.996 727.617ZM443.521 736.002V737.002C449.194 737.002 453.971 735.732 457.784 733.122C461.602 730.508 464.366 726.608 466.112 721.505L465.166 721.182L464.219 720.858C462.585 725.635 460.052 729.146 456.654 731.472C453.252 733.801 448.897 735.002 443.521 735.002V736.002ZM465.166 721.182V722.182H494.611V721.182V720.182H465.166V721.182ZM494.611 721.182L493.642 720.934C490.702 732.437 484.902 741.535 476.251 748.278L476.866 749.067L477.48 749.855C486.509 742.818 492.539 733.326 495.579 721.429L494.611 721.182ZM476.866 749.067L476.251 748.278C467.617 755.007 456.795 758.402 443.716 758.402V759.402V760.402C457.156 760.402 468.434 756.906 477.48 749.855L476.866 749.067ZM443.716 759.402V758.402C433.466 758.402 424.409 756.161 416.517 751.706L416.026 752.577L415.534 753.447C423.762 758.092 433.165 760.402 443.716 760.402V759.402ZM416.026 752.577L416.528 751.712C408.628 747.125 402.452 740.76 397.988 732.597L397.111 733.077L396.233 733.556C400.869 742.034 407.303 748.668 415.523 753.441L416.026 752.577ZM397.111 733.077L397.991 732.603C393.532 724.321 391.286 714.674 391.286 703.632H390.286H389.286C389.286 714.95 391.59 724.933 396.23 733.551L397.111 733.077ZM597.29 653.517L596.794 654.385L596.801 654.389L596.808 654.392L597.29 653.517ZM612.11 669.312L611.216 669.759L611.221 669.769L611.226 669.779L612.11 669.312ZM617.57 757.647V758.647H618.57V757.647H617.57ZM590.27 757.647H589.27V758.647H590.27V757.647ZM583.835 678.282L583.098 678.957L583.108 678.968L583.835 678.282ZM548.345 678.282L547.618 677.595L547.618 677.596L548.345 678.282ZM541.91 757.647V758.647H542.91V757.647H541.91ZM514.61 757.647H513.61V758.647H514.61V757.647ZM514.61 613.347V612.347H513.61V613.347H514.61ZM541.91 613.347H542.91V612.347H541.91V613.347ZM541.91 663.072H540.91V666.072L542.71 663.672L541.91 663.072ZM555.95 652.152L556.356 653.065L556.365 653.062L556.373 653.058L555.95 652.152ZM575.45 648.057V649.057C583.487 649.057 590.592 650.841 596.794 654.385L597.29 653.517L597.786 652.648C591.248 648.912 583.794 647.057 575.45 647.057V648.057ZM597.29 653.517L596.808 654.392C602.986 657.797 607.789 662.905 611.216 669.759L612.11 669.312L613.005 668.864C609.412 661.678 604.335 656.256 597.773 652.641L597.29 653.517ZM612.11 669.312L611.226 669.779C614.773 676.493 616.57 684.644 616.57 694.272H617.57H618.57C618.57 684.399 616.727 675.91 612.994 668.845L612.11 669.312ZM617.57 694.272H616.57V757.647H617.57H618.57V694.272H617.57ZM617.57 757.647V756.647H590.27V757.647V758.647H617.57V757.647ZM590.27 757.647H591.27V697.977H590.27H589.27V757.647H590.27ZM590.27 697.977H591.27C591.27 689.238 589.084 682.391 584.563 677.596L583.835 678.282L583.108 678.968C587.166 683.272 589.27 689.556 589.27 697.977H590.27ZM583.835 678.282L584.572 677.606C580.061 672.684 573.924 670.262 566.285 670.262V671.262V672.262C573.466 672.262 579.03 674.519 583.098 678.957L583.835 678.282ZM566.285 671.262V670.262C558.521 670.262 552.26 672.681 547.618 677.595L548.345 678.282L549.072 678.968C553.271 674.523 558.969 672.262 566.285 672.262V671.262ZM548.345 678.282L547.618 677.596C543.096 682.391 540.91 689.238 540.91 697.977H541.91H542.91C542.91 689.556 545.014 683.272 549.073 678.968L548.345 678.282ZM541.91 697.977H540.91V757.647H541.91H542.91V697.977H541.91ZM541.91 757.647V756.647H514.61V757.647V758.647H541.91V757.647ZM514.61 757.647H515.61V613.347H514.61H513.61V757.647H514.61ZM514.61 613.347V614.347H541.91V613.347V612.347H514.61V613.347ZM541.91 613.347H540.91V663.072H541.91H542.91V613.347H541.91ZM541.91 663.072L542.71 663.672C546.108 659.141 550.647 655.603 556.356 653.065L555.95 652.152L555.544 651.238C549.553 653.9 544.732 657.643 541.11 662.472L541.91 663.072ZM555.95 652.152L556.373 653.058C562.077 650.396 568.431 649.057 575.45 649.057V648.057V647.057C568.17 647.057 561.523 648.447 555.527 651.245L555.95 652.152ZM645.871 653.517L645.004 653.019L645.002 653.023L645.871 653.517ZM670.636 628.752L671.126 629.623L671.13 629.621L670.636 628.752ZM769.891 663.852V664.852H771.274L770.841 663.538L769.891 663.852ZM738.496 663.852L737.595 664.284L737.867 664.852H738.496V663.852ZM725.236 649.227L724.734 650.091L724.742 650.096L725.236 649.227ZM684.481 650.007L684.993 650.866L684.998 650.863L684.481 650.007ZM670.051 665.607L669.164 665.146L669.16 665.153L669.157 665.159L670.051 665.607ZM670.051 713.187L669.153 713.627L669.158 713.637L669.164 713.647L670.051 713.187ZM684.481 728.982L683.956 729.833L683.967 729.839L683.977 729.845L684.481 728.982ZM725.236 729.567L725.739 730.431L725.745 730.428L725.236 729.567ZM738.496 714.747V713.747H737.867L737.595 714.314L738.496 714.747ZM769.891 714.747L770.842 715.058L771.27 713.747H769.891V714.747ZM745.906 747.312L746.467 748.139L746.47 748.138L745.906 747.312ZM670.636 750.042L670.138 750.909L670.144 750.912L670.151 750.916L670.636 750.042ZM645.871 725.277L645.002 725.77L645.006 725.779L645.871 725.277ZM636.901 689.397H637.901C637.901 676.161 640.855 664.374 646.741 654.01L645.871 653.517L645.002 653.023C638.927 663.719 635.901 675.852 635.901 689.397H636.901ZM645.871 653.517L646.739 654.014C652.762 643.506 660.888 635.382 671.126 629.623L670.636 628.752L670.146 627.88C659.584 633.821 651.201 642.208 645.004 653.019L645.871 653.517ZM670.636 628.752L671.13 629.621C681.498 623.733 693.091 620.782 705.931 620.782V619.782V618.782C692.771 618.782 680.834 621.81 670.142 627.882L670.636 628.752ZM705.931 619.782V620.782C720.961 620.782 734.085 624.632 745.343 632.308L745.906 631.482L746.47 630.655C734.847 622.731 721.321 618.782 705.931 618.782V619.782ZM745.906 631.482L745.343 632.308C756.592 639.978 764.457 650.583 768.942 664.165L769.891 663.852L770.841 663.538C766.225 649.56 758.1 638.585 746.47 630.655L745.906 631.482ZM769.891 663.852V662.852H738.496V663.852V664.852H769.891V663.852ZM738.496 663.852L739.398 663.419C736.198 656.754 731.644 651.718 725.73 648.357L725.236 649.227L724.742 650.096C730.268 653.236 734.554 657.95 737.595 664.284L738.496 663.852ZM725.236 649.227L725.739 648.362C719.975 645.011 713.297 643.352 705.736 643.352V644.352V645.352C712.996 645.352 719.317 646.942 724.734 650.091L725.236 649.227ZM705.736 644.352V643.352C697.64 643.352 690.374 645.278 683.964 649.151L684.481 650.007L684.998 650.863C691.069 647.195 697.972 645.352 705.736 645.352V644.352ZM684.481 650.007L683.969 649.148C677.688 652.89 672.753 658.233 669.164 665.146L670.051 665.607L670.939 666.067C674.369 659.46 679.054 654.404 684.993 650.866L684.481 650.007ZM670.051 665.607L669.157 665.159C665.695 672.084 663.981 680.173 663.981 689.397H664.981H665.981C665.981 680.421 667.648 672.649 670.946 666.054L670.051 665.607ZM664.981 689.397H663.981C663.981 698.494 665.696 706.579 669.153 713.627L670.051 713.187L670.949 712.746C667.647 706.015 665.981 698.24 665.981 689.397H664.981ZM670.051 713.187L669.164 713.647C672.752 720.558 677.683 725.962 683.956 729.833L684.481 728.982L685.006 728.131C679.06 724.461 674.371 719.336 670.939 712.726L670.051 713.187ZM684.481 728.982L683.977 729.845C690.385 733.583 697.647 735.442 705.736 735.442V734.442V733.442C697.965 733.442 691.057 731.66 684.985 728.118L684.481 728.982ZM705.736 734.442V735.442C713.297 735.442 719.975 733.782 725.739 730.431L725.236 729.567L724.734 728.702C719.317 731.851 712.996 733.442 705.736 733.442V734.442ZM725.236 729.567L725.745 730.428C731.65 726.938 736.2 721.842 739.398 715.179L738.496 714.747L737.595 714.314C734.553 720.651 730.262 725.435 724.727 728.706L725.236 729.567ZM738.496 714.747V715.747H769.891V714.747V713.747H738.496V714.747ZM769.891 714.747L768.941 714.436C764.455 728.149 756.59 738.817 745.343 746.485L745.906 747.312L746.47 748.138C758.103 740.206 766.227 729.165 770.842 715.058L769.891 714.747ZM745.906 747.312L745.345 746.484C734.22 754.028 721.096 757.817 705.931 757.817V758.817V759.817C721.446 759.817 734.972 755.935 746.467 748.139L745.906 747.312ZM705.931 758.817V757.817C693.087 757.817 681.492 754.928 671.122 749.167L670.636 750.042L670.151 750.916C680.841 756.855 692.775 759.817 705.931 759.817V758.817ZM670.636 750.042L671.135 749.175C660.889 743.284 652.759 735.155 646.736 724.775L645.871 725.277L645.006 725.779C651.203 736.458 659.583 744.84 670.138 750.909L670.636 750.042ZM645.871 725.277L646.741 724.783C640.855 714.419 637.901 702.632 637.901 689.397H636.901H635.901C635.901 702.941 638.927 715.074 645.002 725.77L645.871 725.277ZM813.099 752.577L812.609 753.448L812.619 753.454L813.099 752.577ZM793.404 732.882L792.529 733.366L792.535 733.376L793.404 732.882ZM793.599 674.382L792.736 673.877L792.73 673.887L793.599 674.382ZM813.684 654.882L814.158 655.762L814.168 655.756L813.684 654.882ZM870.234 654.882L869.749 655.757L869.76 655.762L870.234 654.882ZM890.124 674.382L889.255 674.876L889.261 674.886L890.124 674.382ZM889.929 732.882L889.071 732.367L889.066 732.377L889.929 732.882ZM869.649 752.577L870.123 753.457L870.128 753.455L869.649 752.577ZM855.024 732.102L855.503 732.98L855.512 732.975L855.024 732.102ZM865.554 721.182L866.434 721.657V721.657L865.554 721.182ZM861.264 680.037L860.54 680.727L860.548 680.735L860.557 680.744L861.264 680.037ZM821.874 680.037L821.15 679.347L821.15 679.347L821.874 680.037ZM821.679 727.422L820.938 728.093L820.946 728.102L820.955 728.111L821.679 727.422ZM841.179 759.402V758.402C830.93 758.402 821.738 756.161 813.579 751.699L813.099 752.577L812.619 753.454C821.1 758.092 830.628 760.402 841.179 760.402V759.402ZM813.099 752.577L813.589 751.705C805.43 747.116 798.995 740.682 794.273 732.387L793.404 732.882L792.535 733.376C797.433 741.981 804.127 748.678 812.609 753.448L813.099 752.577ZM793.404 732.882L794.279 732.397C789.692 724.116 787.384 714.537 787.384 703.632H786.384H785.384C785.384 714.826 787.756 724.748 792.529 733.366L793.404 732.882ZM786.384 703.632H787.384C787.384 692.731 789.755 683.156 794.468 674.876L793.599 674.382L792.73 673.887C787.823 682.507 785.384 692.432 785.384 703.632H786.384ZM793.599 674.382L794.462 674.886C799.311 666.592 805.873 660.223 814.158 655.762L813.684 654.882L813.21 654.001C804.595 658.64 797.766 665.272 792.736 673.877L793.599 674.382ZM813.684 654.882L814.168 655.756C822.459 651.165 831.715 648.862 841.959 648.862V647.862V646.862C831.403 646.862 821.809 649.238 813.199 654.007L813.684 654.882ZM841.959 647.862V648.862C852.203 648.862 861.459 651.165 869.749 655.756L870.234 654.882L870.718 654.007C862.109 649.238 852.515 646.862 841.959 646.862V647.862ZM870.234 654.882L869.76 655.762C878.042 660.222 884.536 666.587 889.255 674.876L890.124 674.382L890.993 673.887C886.091 665.276 879.326 658.641 870.708 654.001L870.234 654.882ZM890.124 674.382L889.261 674.886C894.1 683.164 896.534 692.736 896.534 703.632H897.534H898.534C898.534 692.428 896.028 682.499 890.987 673.877L890.124 674.382ZM897.534 703.632H896.534C896.534 714.523 894.037 724.091 889.071 732.367L889.929 732.882L890.786 733.396C895.961 724.772 898.534 714.84 898.534 703.632H897.534ZM889.929 732.882L889.066 732.377C884.217 740.67 877.59 747.106 869.17 751.699L869.649 752.577L870.128 753.455C878.868 748.687 885.761 741.993 890.792 733.386L889.929 732.882ZM869.649 752.577L869.175 751.696C860.884 756.16 851.56 758.402 841.179 758.402V759.402V760.402C851.858 760.402 861.513 758.093 870.123 753.457L869.649 752.577ZM841.179 735.612V736.612C846.284 736.612 851.064 735.401 855.503 732.98L855.024 732.102L854.545 731.224C850.404 733.483 845.953 734.612 841.179 734.612V735.612ZM855.024 732.102L855.512 732.975C860.111 730.405 863.751 726.62 866.434 721.657L865.554 721.182L864.674 720.706C862.157 725.363 858.777 728.859 854.536 731.229L855.024 732.102ZM865.554 721.182L866.434 721.657C869.13 716.668 870.454 710.645 870.454 703.632H869.454H868.454C868.454 710.398 867.177 716.075 864.674 720.706L865.554 721.182ZM869.454 703.632H870.454C870.454 693.187 867.674 685.033 861.971 679.33L861.264 680.037L860.557 680.744C865.774 685.961 868.454 693.536 868.454 703.632H869.454ZM861.264 680.037L861.988 679.347C856.467 673.556 849.639 670.652 841.569 670.652V671.652V672.652C849.099 672.652 855.401 675.337 860.54 680.727L861.264 680.037ZM841.569 671.652V670.652C833.498 670.652 826.671 673.556 821.15 679.347L821.874 680.037L822.598 680.727C827.737 675.337 834.039 672.652 841.569 672.652V671.652ZM821.874 680.037L821.15 679.347C815.717 685.052 813.074 693.199 813.074 703.632H814.074H815.074C815.074 693.524 817.631 685.942 822.598 680.726L821.874 680.037ZM814.074 703.632H813.074C813.074 714.059 815.649 722.262 820.938 728.093L821.679 727.422L822.42 726.75C817.569 721.401 815.074 713.744 815.074 703.632H814.074ZM821.679 727.422L820.955 728.111C826.351 733.777 833.116 736.612 841.179 736.612V735.612V734.612C833.642 734.612 827.407 731.986 822.403 726.732L821.679 727.422ZM944.859 666.387H943.859V669.928L945.712 666.91L944.859 666.387ZM958.51 652.932L958.015 652.062L958.007 652.067L958.51 652.932ZM978.01 648.057H979.01V647.057H978.01V648.057ZM978.01 676.722V677.722H979.01V676.722H978.01ZM951.294 682.767L950.621 682.028L950.615 682.033L950.61 682.038L951.294 682.767ZM944.859 757.647V758.647H945.859V757.647H944.859ZM917.56 757.647H916.56V758.647H917.56V757.647ZM917.56 649.617V648.617H916.56V649.617H917.56ZM944.859 649.617H945.859V648.617H944.859V649.617ZM944.859 666.387L945.712 666.91C949.139 661.325 953.571 656.96 959.012 653.796L958.51 652.932L958.007 652.067C952.268 655.404 947.6 660.008 944.007 665.864L944.859 666.387ZM958.51 652.932L959.003 653.801C964.557 650.646 970.884 649.057 978.01 649.057V648.057V647.057C970.575 647.057 963.902 648.718 958.016 652.062L958.51 652.932ZM978.01 648.057H977.01V676.722H978.01H979.01V648.057H978.01ZM978.01 676.722V675.722H970.794V676.722V677.722H978.01V676.722ZM970.794 676.722V675.722C962.073 675.722 955.291 677.769 950.621 682.028L951.294 682.767L951.968 683.506C956.138 679.704 962.356 677.722 970.794 677.722V676.722ZM951.294 682.767L950.61 682.038C946.016 686.353 943.859 693.724 943.859 703.827H944.859H945.859C945.859 693.91 947.993 687.24 951.979 683.495L951.294 682.767ZM944.859 703.827H943.859V757.647H944.859H945.859V703.827H944.859ZM944.859 757.647V756.647H917.56V757.647V758.647H944.859V757.647ZM917.56 757.647H918.56V649.617H917.56H916.56V757.647H917.56ZM917.56 649.617V650.617H944.859V649.617V648.617H917.56V649.617ZM944.859 649.617H943.859V666.387H944.859H945.859V649.617H944.859ZM1096.04 711.822V712.822H1096.89L1097.03 711.986L1096.04 711.822ZM1017.07 711.822V710.822H1015.98L1016.07 711.905L1017.07 711.822ZM1025.26 730.152L1024.58 730.888V730.888L1025.26 730.152ZM1064.65 723.717V722.717H1064.03L1063.75 723.275L1064.65 723.717ZM1094.09 723.717L1095.05 724.004L1095.44 722.717H1094.09V723.717ZM1076.15 749.457L1076.75 750.257L1076.76 750.251L1076.15 749.457ZM1015.51 752.577L1015.01 753.445L1015.02 753.45L1015.03 753.454L1015.51 752.577ZM996.202 732.882L995.322 733.356L995.328 733.366L996.202 732.882ZM996.202 674.187L995.322 673.713V673.713L996.202 674.187ZM1015.31 654.687L1015.8 655.561V655.561L1015.31 654.687ZM1071.08 654.492L1070.6 655.368L1070.61 655.372L1071.08 654.492ZM1090 673.407L1089.12 673.882L1089.12 673.89L1089.13 673.898L1090 673.407ZM1068.55 693.492V694.492H1069.57L1069.55 693.473L1068.55 693.492ZM1060.94 676.722L1060.29 677.477L1060.29 677.482L1060.3 677.487L1060.94 676.722ZM1025.65 676.527L1026.31 677.275L1026.31 677.274L1025.65 676.527ZM1017.26 693.492L1016.27 693.35L1016.11 694.492H1017.26V693.492ZM1096.82 701.292H1095.82C1095.82 705.149 1095.57 708.602 1095.06 711.657L1096.04 711.822L1097.03 711.986C1097.56 708.801 1097.82 705.235 1097.82 701.292H1096.82ZM1096.04 711.822V710.822H1017.07V711.822V712.822H1096.04V711.822ZM1017.07 711.822L1016.07 711.905C1016.74 719.902 1019.55 726.266 1024.58 730.888L1025.26 730.152L1025.93 729.415C1021.34 725.198 1018.7 719.341 1018.06 711.739L1017.07 711.822ZM1025.26 730.152L1024.58 730.888C1029.59 735.491 1035.75 737.782 1043 737.782V736.782V735.782C1036.21 735.782 1030.54 733.652 1025.93 729.415L1025.26 730.152ZM1043 736.782V737.782C1048.22 737.782 1052.74 736.661 1056.54 734.372C1060.33 732.081 1063.33 728.658 1065.54 724.158L1064.65 723.717L1063.75 723.275C1061.68 727.485 1058.92 730.595 1055.5 732.659C1052.08 734.725 1047.93 735.782 1043 735.782V736.782ZM1064.65 723.717V724.717H1094.09V723.717V722.717H1064.65V723.717ZM1094.09 723.717L1093.13 723.429C1090.08 733.622 1084.22 742.027 1075.54 748.662L1076.15 749.457L1076.76 750.251C1085.76 743.367 1091.87 734.611 1095.05 724.004L1094.09 723.717ZM1076.15 749.457L1075.55 748.657C1066.91 755.136 1056.28 758.402 1043.59 758.402V759.402V760.402C1056.64 760.402 1067.71 757.037 1076.75 750.257L1076.15 749.457ZM1043.59 759.402V758.402C1033.34 758.402 1024.15 756.161 1015.99 751.699L1015.51 752.577L1015.03 753.454C1023.51 758.092 1033.04 760.402 1043.59 760.402V759.402ZM1015.51 752.577L1016 751.708C1007.98 747.122 1001.67 740.691 997.077 732.397L996.202 732.882L995.328 733.366C1000.09 741.972 1006.66 748.672 1015.01 753.445L1015.51 752.577ZM996.202 732.882L997.083 732.408C992.622 724.124 990.377 714.541 990.377 703.632H989.377H988.377C988.377 714.822 990.682 724.739 995.322 733.356L996.202 732.882ZM989.377 703.632H990.377C990.377 692.59 992.623 682.943 997.083 674.661L996.202 674.187L995.322 673.713C990.681 682.331 988.377 692.314 988.377 703.632H989.377ZM996.202 674.187L997.083 674.661C1001.54 666.375 1007.78 660.016 1015.8 655.561L1015.31 654.687L1014.83 653.812C1006.47 658.458 999.96 665.099 995.322 673.713L996.202 674.187ZM1015.31 654.687L1015.8 655.561C1023.82 651.104 1033.07 648.862 1043.59 648.862V647.862V646.862C1032.78 646.862 1023.18 649.169 1014.83 653.812L1015.31 654.687ZM1043.59 647.862V648.862C1053.71 648.862 1062.71 651.038 1070.6 655.368L1071.08 654.492L1071.56 653.615C1063.34 649.105 1054.01 646.862 1043.59 646.862V647.862ZM1071.08 654.492L1070.61 655.372C1078.63 659.699 1084.79 665.863 1089.12 673.882L1090 673.407L1090.88 672.932C1086.36 664.57 1079.92 658.124 1071.56 653.612L1071.08 654.492ZM1090 673.407L1089.13 673.898C1093.58 681.789 1095.82 690.91 1095.82 701.292H1096.82H1097.82C1097.82 690.613 1095.51 681.145 1090.87 672.915L1090 673.407ZM1068.55 693.492L1069.55 693.473C1069.41 686.193 1066.77 680.32 1061.59 675.957L1060.94 676.722L1060.3 677.487C1065 681.443 1067.42 686.75 1067.55 693.51L1068.55 693.492ZM1060.94 676.722L1061.6 675.967C1056.46 671.504 1050.17 669.287 1042.81 669.287V670.287V671.287C1049.74 671.287 1055.55 673.36 1060.29 677.477L1060.94 676.722ZM1042.81 670.287V669.287C1035.82 669.287 1029.86 671.443 1024.98 675.779L1025.65 676.527L1026.31 677.274C1030.79 673.29 1036.27 671.287 1042.81 671.287V670.287ZM1025.65 676.527L1024.98 675.778C1020.22 679.997 1017.34 685.887 1016.27 693.35L1017.26 693.492L1018.25 693.633C1019.27 686.536 1021.97 681.117 1026.31 677.275L1025.65 676.527ZM1017.26 693.492V694.492H1068.55V693.492V692.492H1017.26V693.492Z" fill="#002747" mask="url(#path-4-outside-1_100_31)"/>
</svg>
